<svg xmlns="http://www.w3.org/2000/svg" xmlns:xlink="http://www.w3.org/1999/xlink" width="40" zoomAndPan="magnify" viewBox="0 0 30 30.000001" height="40" preserveAspectRatio="xMidYMid meet" version="1.0"><defs><clipPath id="3eea2c3bea"><path d="M 0.484375 0 L 29.515625 0 L 29.515625 29.03125 L 0.484375 29.03125 Z M 0.484375 0 " clip-rule="nonzero"/></clipPath><clipPath id="84611f97c9"><path d="M 12 4 L 26 4 L 26 29.03125 L 12 29.03125 Z M 12 4 " clip-rule="nonzero"/></clipPath></defs><g clip-path="url(#3eea2c3bea)"><path fill="#3d5a98" d="M 27.910156 29.03125 C 28.796875 29.03125 29.515625 28.3125 29.515625 27.429688 L 29.515625 1.601562 C 29.515625 0.71875 28.796875 0 27.910156 0 L 2.085938 0 C 1.199219 0 0.484375 0.71875 0.484375 1.601562 L 0.484375 27.429688 C 0.484375 28.3125 1.199219 29.03125 2.085938 29.03125 Z M 27.910156 29.03125 " fill-opacity="1" fill-rule="nonzero"/></g><g clip-path="url(#84611f97c9)"><path fill="#ffffff" d="M 20.515625 29.03125 L 20.515625 17.789062 L 24.289062 17.789062 L 24.851562 13.40625 L 20.515625 13.40625 L 20.515625 10.609375 C 20.515625 9.339844 20.867188 8.476562 22.683594 8.476562 L 25.003906 8.476562 L 25.003906 4.558594 C 24.605469 4.503906 23.226562 4.382812 21.625 4.382812 C 18.28125 4.382812 15.988281 6.425781 15.988281 10.175781 L 15.988281 13.40625 L 12.207031 13.40625 L 12.207031 17.789062 L 15.988281 17.789062 L 15.988281 29.03125 Z M 20.515625 29.03125 " fill-opacity="1" fill-rule="nonzero"/></g></svg>